<?xml version="1.0" encoding="utf-8"?>
<!-- Generator: Adobe Illustrator 19.0.1, SVG Export Plug-In . SVG Version: 6.00 Build 0)  -->
<svg version="1.1" id="Layer_1" xmlns="http://www.w3.org/2000/svg" xmlns:xlink="http://www.w3.org/1999/xlink" x="0px" y="0px"
	 viewBox="0 0 17 15" style="enable-background:new 0 0 17 15;" xml:space="preserve">
<style type="text/css">
	.st0{fill:none;stroke:#ffffff;stroke-miterlimit:10;}
	.st1{fill:#ffffff;stroke:#ffffff;stroke-miterlimit:10;}
	.st2{display:none;fill:none;}
	.st3{fill:#FFFFFF;}
	.st4{fill:none;stroke:#FFFFFF;stroke-width:2;stroke-miterlimit:10;}
</style>
<symbol  id="Filter" viewBox="-9 -6 17 15">
	<line class="st0" x1="-6.5" y1="9" x2="-6.5" y2="-6"/>
	<path class="st1" d="M-5-2c0-0.8-0.7-1.5-1.5-1.5S-8-2.8-8-2s0.7,1.5,1.5,1.5S-5-1.2-5-2z"/>
	<line class="st0" x1="-0.5" y1="9" x2="-0.5" y2="-6"/>
	<path class="st1" d="M1,4c0-0.8-0.7-1.5-1.5-1.5S-2,3.2-2,4s0.7,1.5,1.5,1.5S1,4.8,1,4z"/>
	<line class="st0" x1="5.5" y1="9" x2="5.5" y2="-6"/>
	<path class="st1" d="M7,0c0-0.8-0.7-1.5-1.5-1.5S4-0.8,4,0s0.7,1.5,1.5,1.5S7,0.8,7,0z"/>
	<polygon class="st2" points="-9,9 8,9 8,-6 -9,-6 	"/>
</symbol>
<use xlink:href="#Filter"  width="17" height="15" x="-9" y="-6" transform="matrix(1 0 0 -1 9 9)" style="overflow:visible;"/>
</svg>
